/* XPM */
static char * qtsmbstatusl_xpm[] = {
"32 32 577 2",
"  	c None",
". 	c #525252",
"+ 	c #4E4E4E",
"@ 	c #494949",
"# 	c #454545",
"$ 	c #404040",
"% 	c #3C3C3C",
"& 	c #363636",
"* 	c #323232",
"= 	c #2E2E2E",
"- 	c #292929",
"; 	c #242424",
"> 	c #202020",
", 	c #1B1B1B",
"' 	c #191919",
") 	c #626262",
"! 	c #878686",
"~ 	c #817D7D",
"{ 	c #7D7272",
"] 	c #766060",
"^ 	c #6F4E4E",
"/ 	c #5D5D5D",
"( 	c #6F6F70",
"_ 	c #67696B",
": 	c #595D63",
"< 	c #4A515B",
"[ 	c #2E363F",
"} 	c #1D1D1D",
"| 	c #4D4D4D",
"1 	c #868686",
"2 	c #FBEEEE",
"3 	c #F4D0D0",
"4 	c #EDB4B4",
"5 	c #E38C8C",
"6 	c #D86767",
"7 	c #2D2D2D",
"8 	c #B7B8B8",
"9 	c #E2E9F2",
"0 	c #CCD8E8",
"a 	c #ABBEDA",
"b 	c #8BA7CD",
"c 	c #526988",
"d 	c #2A2A2A",
"e 	c #4A4A4A",
"f 	c #121214",
"g 	c #2B2B2D",
"h 	c #2F2F2F",
"i 	c #474747",
"j 	c #F4D2D2",
"k 	c #EBAFAF",
"l 	c #E69797",
"m 	c #DE7575",
"n 	c #CF5555",
"o 	c #272727",
"p 	c #ADAFB2",
"q 	c #C1CEE3",
"r 	c #AEC0DC",
"s 	c #8FA9CF",
"t 	c #7898C4",
"u 	c #506586",
"v 	c #39393A",
"w 	c #141416",
"x 	c #3C3C3D",
"y 	c #1F1F21",
"z 	c #1B1B1C",
"A 	c #181817",
"B 	c #535353",
"C 	c #9B9A9A",
"D 	c #9B9391",
"E 	c #C6A1A0",
"F 	c #E08D8D",
"G 	c #DA6565",
"H 	c #C74646",
"I 	c #222222",
"J 	c #A0A4AB",
"K 	c #A7BAD8",
"L 	c #98B0D2",
"M 	c #809CC8",
"N 	c #6C8DC0",
"O 	c #566C8D",
"P 	c #1D1D1E",
"Q 	c #28282A",
"R 	c #202022",
"S 	c #020204",
"T 	c #0C0C0C",
"U 	c #0A0A0B",
"V 	c #171717",
"W 	c #A8A4A3",
"X 	c #7E7978",
"Y 	c #635D5B",
"Z 	c #585351",
"` 	c #7E7B78",
" .	c #C37675",
"..	c #BE3131",
"+.	c #1C1C1C",
"@.	c #8892A0",
"#.	c #84A1CA",
"$.	c #7998C5",
"%.	c #6689BD",
"&.	c #5880B7",
"*.	c #445B7C",
"=.	c #131315",
"-.	c #060507",
";.	c #060608",
">.	c #1A1A1B",
",.	c #101011",
"'.	c #030305",
").	c #C8BFBD",
"!.	c #9B8F8D",
"~.	c #8E807D",
"{.	c #736063",
"].	c #6C5C5F",
"^.	c #685D5F",
"/.	c #746E6E",
"(.	c #A78C8A",
"_.	c #313030",
":.	c #6F7F94",
"<.	c #688CBD",
"[.	c #5F83BA",
"}.	c #4E77B3",
"|.	c #4570AF",
"1.	c #395074",
"2.	c #8D8C8C",
"3.	c #1A191A",
"4.	c #908F8F",
"5.	c #3C3C3B",
"6.	c #080809",
"7.	c #212122",
"8.	c #A19A97",
"9.	c #796E6C",
"0.	c #817572",
"a.	c #8C7D7F",
"b.	c #7D6F71",
"c.	c #776D6E",
"d.	c #827A7B",
"e.	c #837E7E",
"f.	c #9E9A9A",
"g.	c #858E9D",
"h.	c #4670AD",
"i.	c #3C67A6",
"j.	c #2E5C9F",
"k.	c #28569B",
"l.	c #324C70",
"m.	c #949494",
"n.	c #71716F",
"o.	c #605C53",
"p.	c #858179",
"q.	c #656463",
"r.	c #A4A4A4",
"s.	c #1F1F1F",
"t.	c #000000",
"u.	c #928D89",
"v.	c #655C59",
"w.	c #685E5A",
"x.	c #827577",
"y.	c #918587",
"z.	c #897F80",
"A.	c #92898A",
"B.	c #9A9292",
"C.	c #948E8D",
"D.	c #8F8A88",
"E.	c #979595",
"F.	c #444E5C",
"G.	c #0B1A30",
"H.	c #101E34",
"I.	c #2F3844",
"J.	c #807E7D",
"K.	c #7F6932",
"L.	c #B9982B",
"M.	c #B29833",
"N.	c #6B5D27",
"O.	c #888478",
"P.	c #77726D",
"Q.	c #675F5A",
"R.	c #6D6464",
"S.	c #857B7C",
"T.	c #A09697",
"U.	c #9F9596",
"V.	c #A69B9C",
"W.	c #AAA1A0",
"X.	c #9B9491",
"Y.	c #9C9794",
"Z.	c #AFACA9",
"`.	c #A2A49E",
" +	c #4E5A48",
".+	c #475241",
"++	c #6F5628",
"@+	c #DDA914",
"#+	c #ECC315",
"$+	c #F3D426",
"%+	c #EBC918",
"&+	c #A48118",
"*+	c #1D1708",
"=+	c #030304",
"-+	c #837F7C",
";+	c #706A65",
">+	c #6E6565",
",+	c #7B7273",
"'+	c #ABA0A1",
")+	c #A99D9F",
"!+	c #A99E9D",
"~+	c #A29A97",
"{+	c #A6A09C",
"]+	c #AEAAA6",
"^+	c #BAB7B3",
"/+	c #C1BFBC",
"(+	c #B7BFB3",
"_+	c #7F6E4D",
":+	c #D4A310",
"<+	c #E6C015",
"[+	c #D9B219",
"}+	c #C49411",
"|+	c #96742D",
"1+	c #221E16",
"2+	c #252525",
"3+	c #343333",
"4+	c #A2A2A1",
"5+	c #777271",
"6+	c #7A7474",
"7+	c #847A7B",
"8+	c #8D8384",
"9+	c #A79B9D",
"0+	c #A79C9D",
"a+	c #AAA0A1",
"b+	c #ABA2A2",
"c+	c #AFA5A6",
"d+	c #B8AEAF",
"e+	c #BDB4B4",
"f+	c #BEB7B5",
"g+	c #C2BCBA",
"h+	c #C4BAA7",
"i+	c #BA9138",
"j+	c #C19E53",
"k+	c #C3AF82",
"l+	c #CAC9C8",
"m+	c #444446",
"n+	c #666662",
"o+	c #B7B4AB",
"p+	c #898584",
"q+	c #837C7C",
"r+	c #82797A",
"s+	c #8E8485",
"t+	c #ADA3A4",
"u+	c #A89E9F",
"v+	c #ACA2A3",
"w+	c #B0A6A7",
"x+	c #B7ACAD",
"y+	c #BDB1B1",
"z+	c #BDB3B2",
"A+	c #C0B8B6",
"B+	c #CEC6C4",
"C+	c #D5D1CD",
"D+	c #E2E1E0",
"E+	c #FAF9F9",
"F+	c #9F9FA0",
"G+	c #212123",
"H+	c #1C1C1E",
"I+	c #2F2F30",
"J+	c #111111",
"K+	c #525246",
"L+	c #C6C58C",
"M+	c #BBB9A3",
"N+	c #85807F",
"O+	c #766F6F",
"P+	c #887E7F",
"Q+	c #9B9192",
"R+	c #B4AAAB",
"S+	c #AEA4A5",
"T+	c #B2A6A7",
"U+	c #B7A9A9",
"V+	c #BDAFAF",
"W+	c #C1B3B4",
"X+	c #C3B6B6",
"Y+	c #C5B9B8",
"Z+	c #E6E1DE",
"`+	c #E2DEDC",
" @	c #EEEEEE",
".@	c #222223",
"+@	c #040406",
"@@	c #3A3A3B",
"#@	c #494836",
"$@	c #B5B36A",
"%@	c #A9A64F",
"&@	c #B2AF78",
"*@	c #8C8786",
"=@	c #7C7575",
"-@	c #867C7D",
";@	c #918788",
">@	c #988E8F",
",@	c #B9AFB0",
"'@	c #B6ACAD",
")@	c #B0A6A6",
"!@	c #B0A4A4",
"~@	c #B8ABAB",
"{@	c #C5B5B6",
"]@	c #C8B7B8",
"^@	c #CAC0BD",
"/@	c #DED8D5",
"(@	c #E2E0DF",
"_@	c #7C7C7B",
":@	c #040404",
"<@	c #171719",
"[@	c #060606",
"}@	c #3B3B1D",
"|@	c #9E9C39",
"1@	c #929127",
"2@	c #8B891C",
"3@	c #969247",
"4@	c #9B9595",
"5@	c #8D8485",
"6@	c #908687",
"7@	c #B1A7A8",
"8@	c #C0B8B8",
"9@	c #B2ACAA",
"0@	c #AFA7A5",
"a@	c #B8ADAC",
"b@	c #C2B4B4",
"c@	c #C7B7B8",
"d@	c #CDBFBC",
"e@	c #D4CAC5",
"f@	c #D8D3CF",
"g@	c #DCDCD8",
"h@	c #424242",
"i@	c #181819",
"j@	c #060607",
"k@	c #1D1C1E",
"l@	c #010101",
"m@	c #121106",
"n@	c #31300C",
"o@	c #2C2B07",
"p@	c #292804",
"q@	c #232200",
"r@	c #555342",
"s@	c #A6A3A0",
"t@	c #8E8986",
"u@	c #948E8B",
"v@	c #978F8D",
"w@	c #988F8D",
"x@	c #9C9391",
"y@	c #B7B0AE",
"z@	c #C5BDBB",
"A@	c #B4ACAA",
"B@	c #B9B1AF",
"C@	c #C2BAB8",
"D@	c #CDC3BE",
"E@	c #D9CFCA",
"F@	c #DDD6D1",
"G@	c #D2CFC9",
"H@	c #D7D6D1",
"I@	c #343433",
"J@	c #1C1B1C",
"K@	c #161617",
"L@	c #323231",
"M@	c #9B9995",
"N@	c #979490",
"O@	c #98928F",
"P@	c #968E8B",
"Q@	c #948B89",
"R@	c #998E8E",
"S@	c #A59B9A",
"T@	c #C6BDBC",
"U@	c #CBC1C0",
"V@	c #C0B7B5",
"W@	c #CBC2BE",
"X@	c #DFD6D1",
"Y@	c #E0DAD4",
"Z@	c #E8E3DD",
"`@	c #DEDBD5",
" #	c #4E4E4D",
".#	c #2B2A2B",
"+#	c #AAAAAA",
"@#	c #C4C2BE",
"##	c #A5A19E",
"$#	c #999491",
"%#	c #9C9492",
"&#	c #9D9292",
"*#	c #9C9090",
"=#	c #9E9292",
"-#	c #B6A9A9",
";#	c #D4C7C6",
">#	c #D0C6C2",
",#	c #E4DBD6",
"'#	c #F7F1EB",
")#	c #EDE8E2",
"!#	c #D9D6CF",
"~#	c #666665",
"{#	c #4A4949",
"]#	c #323131",
"^#	c #858585",
"/#	c #313132",
"(#	c #7A7978",
"_#	c #B7B3B3",
":#	c #A8A3A2",
"<#	c #A49F9C",
"[#	c #9E9795",
"}#	c #9E9493",
"|#	c #9F9292",
"1#	c #A89A9A",
"2#	c #C5BBB7",
"3#	c #DED5D0",
"4#	c #F1EBE5",
"5#	c #EAE5DF",
"6#	c #CDCAC3",
"7#	c #91908E",
"8#	c #5B5B5C",
"9#	c #242425",
"0#	c #3B3B3B",
"a#	c #424140",
"b#	c #181715",
"c#	c #DDDCDC",
"d#	c #CACCC8",
"e#	c #B3B3AF",
"f#	c #A6A29F",
"g#	c #A29997",
"h#	c #A59998",
"i#	c #AFA6A2",
"j#	c #C2B9B4",
"k#	c #E2DCD6",
"l#	c #DED9D3",
"m#	c #B9B6AF",
"n#	c #BFBEBC",
"o#	c #79797A",
"p#	c #373738",
"q#	c #B4820D",
"r#	c #CB9C0E",
"s#	c #766943",
"t#	c #C0C0C0",
"u#	c #FBFBFB",
"v#	c #F7F8F7",
"w#	c #DAD9D7",
"x#	c #CBC7C6",
"y#	c #C1BAB9",
"z#	c #A49D99",
"A#	c #B2ABA6",
"B#	c #C5BFBA",
"C#	c #D1CCC7",
"D#	c #B3AFA9",
"E#	c #C4C1BC",
"F#	c #959491",
"G#	c #343230",
"H#	c #54472D",
"I#	c #606060",
"J#	c #8C600D",
"K#	c #A3710C",
"L#	c #DBA50D",
"M#	c #F4BD0E",
"N#	c #B78F13",
"O#	c #59523F",
"P#	c #CECECE",
"Q#	c #F5F5F5",
"R#	c #FAFAFA",
"S#	c #F9F8F8",
"T#	c #E8E5E2",
"U#	c #DFDBD9",
"V#	c #DCD9D6",
"W#	c #E6D8B3",
"X#	c #CEBE93",
"Y#	c #C9C4BB",
"Z#	c #B8B5AC",
"`#	c #AFA99C",
" $	c #BE9B34",
".$	c #DAA40F",
"+$	c #F0BA16",
"@$	c #F5C121",
"#$	c #F5C01B",
"$$	c #F1BB10",
"%$	c #8D6F10",
"&$	c #232322",
"*$	c #9D9D9D",
"=$	c #FCFCFC",
"-$	c #F1F1F1",
";$	c #CCB372",
">$	c #DEA60E",
",$	c #AD8A3F",
"'$	c #906E20",
")$	c #C3BAA1",
"!$	c #BEB8AB",
"~$	c #B89A60",
"{$	c #EDB719",
"]$	c #F6C93E",
"^$	c #F6CD4A",
"/$	c #F5C11F",
"($	c #F5BD0E",
"_$	c #DFB112",
":$	c #312508",
"<$	c #393939",
"[$	c #F6F6F6",
"}$	c #FDFDFD",
"|$	c #DEDEDE",
"1$	c #B3995C",
"2$	c #E3AE17",
"3$	c #E2A90F",
"4$	c #E1A90D",
"5$	c #EFB810",
"6$	c #D4BF83",
"7$	c #AFA9A4",
"8$	c #C6BFBA",
"9$	c #EAB51C",
"0$	c #F6CC48",
"a$	c #F7CE4D",
"b$	c #C09C24",
"c$	c #B5AF9E",
"d$	c #EBEBEB",
"e$	c #F2F2F2",
"f$	c #F3F3F3",
"g$	c #E8E8E8",
"h$	c #C4C4C4",
"i$	c #787879",
"j$	c #6E5112",
"k$	c #E4B121",
"l$	c #F6CB45",
"m$	c #E0BD58",
"n$	c #BBB5AA",
"o$	c #B5B6B3",
"p$	c #585858",
"q$	c #C7C7C7",
"r$	c #906A1F",
"s$	c #E4B018",
"t$	c #EDBB24",
"u$	c #F3C22C",
"v$	c #F5BF16",
"w$	c #E3B114",
"x$	c #B1985E",
"y$	c #BEBEBE",
"z$	c #CBCBCB",
"A$	c #BFBFBF",
"B$	c #9A9A9A",
"C$	c #454546",
"D$	c #0F0F11",
"E$	c #715008",
"F$	c #E5AF17",
"G$	c #F7CE52",
"H$	c #F3C22D",
"I$	c #F1B90E",
"J$	c #E7B00E",
"K$	c #BB8A0E",
"L$	c #A07823",
"M$	c #C9C9C7",
"N$	c #CDCDCB",
"O$	c #2C2C2C",
"P$	c #646464",
"Q$	c #654918",
"R$	c #AB7C19",
"S$	c #C38F0C",
"T$	c #CE980D",
"U$	c #DFA80D",
"V$	c #EDB50D",
"W$	c #F2BA0E",
"X$	c #DDA50D",
"Y$	c #815A0C",
"Z$	c #0C0B0B",
"`$	c #141415",
" %	c #0B0B0B",
".%	c #050506",
"+%	c #77530A",
"@%	c #DBA30B",
"#%	c #EBB616",
"$%	c #E4AF18",
"%%	c #C9940D",
"&%	c #AC790C",
"*%	c #967029",
"=%	c #A0720F",
"-%	c #BB860B",
";%	c #CB930B",
">%	c #AB780C",
",%	c #624410",
"'%	c #343334",
")%	c #715014",
"!%	c #B8820A",
"~%	c #CF970B",
"{%	c #AE7D0D",
"]%	c #86704B",
"^%	c #775010",
"/%	c #614413",
"(%	c #776D5D",
"_%	c #755216",
":%	c #7F5711",
"                                                                ",
"    . + @ # $ % & * = - ; > , '                                 ",
"  . ) ! ~ { ] ^ * / ( _ : < [ }                                 ",
"  | 1 2 3 4 5 6 7 8 9 0 a b c d e f g h                         ",
"  i ~ j k l m n o p q r s t u v w x y z A =                     ",
"  B C D E F G H I J K L M N O P Q R S T U V                     ",
"  W X Y Z `  ...+.@.#.$.%.&.*.=.+.-.;.>.,.'.                    ",
").!.~.{.].^./.(._.:.<.[.}.|.1.v 2.3.d 4.5.6.7.                  ",
"8.9.0.a.b.c.d.e.f.g.h.i.j.k.l.m.n.o.p.q.r.s.t.                  ",
"u.v.w.x.y.z.A.B.C.D.E.F.G.H.I.J.K.L.M.N.O.T t.                  ",
"  P.Q.R.S.T.U.V.W.X.Y.Z.`. +.+++@+#+$+%+&+*+=+                  ",
"  -+;+>+,+z.'+)+!+~+{+]+^+/+(+_+:+<+[+}+|+1+2+3+                ",
"  +.4+5+6+7+8+9+0+a+b+c+d+e+f+g+h+i+j+k+l+m+$ P                 ",
"  V n+o+p+q+r+s+a+t+u+v+w+x+y+z+A+B+C+D+E+F+G+H+I+              ",
"  J+K+L+M+N+O+r+P+Q+R+S+v+T+U+V+W+X+Y+Z+`+ @.@+@,.@@            ",
"  T #@$@%@&@*@=@-@;@>@,@'@)@!@~@V+{@]@^@/@(@_@:@=+<@            ",
"  [@}@|@1@2@3@4@5@6@Q+>@7@8@9@0@a@b@c@d@e@f@g@h@i@j@k@          ",
"  l@m@n@o@p@q@r@s@t@u@v@w@x@y@z@A@B@C@D@E@F@G@H@I@J@K@          ",
"    t.t.t.t.t.t.L@M@N@O@P@Q@R@S@T@U@V@W@X@Y@Z@`@ #3++@.#        ",
"      +#            @###$#%#&#*#=#-#;#>#,#'#)#!#~#{#S ]#        ",
"      ^#            /#(#_#:#<#[#}#|#1#2#3#4#5#6#7#8#w 9#        ",
"      0#            a#b#^#c#d#e#f#g#h#i#j#k#l#m#n#o#p#9#        ",
"      +#            q#r#s#t#u#v#w#x#y#z#A#B#C#D#E#F#G#H#        ",
"      I#        J#K#L#M#N#O#P#u#Q#R#S#T#U#V#W#X#Y#Z#`# $        ",
"      I#      J#.$+$@$#$$$%$&$*$=$u#=$u#=$-$;$>$,$'$)$!$~$      ",
"      +#      K#{$]$^$/$($_$:$<$[$}$}$}$Q#|$1$2$3$4$5$6$7$8$    ",
"      0#      K#9$0$a$#$($M#b$c$d$e$f$g$h$i$j$k$l$/$($M#m$n$o$  ",
"      ^#p$q$q$r$s$t$u$v$($($w$x$y$z$A$B$C$D$E$F$G$H$I$J$K$L$M$N$",
"      +#O$P$P$Q$R$S$T$U$V$W$X$Y$Z$`$ %.%+@+@+%@%#%$%%%&%        ",
"                    *%=%-%;%>%,%a#'%        )%!%~%{%            ",
"                        ]%^%/%(%              _%:%              ",
"                                                                "};
