/* XPM */
static char * qtsmbstatus_xpm[] = {
"32 32 480 2",
"  	c None",
". 	c #525252",
"+ 	c #4E4E4E",
"@ 	c #494949",
"# 	c #454545",
"$ 	c #404040",
"% 	c #3C3C3C",
"& 	c #363636",
"* 	c #323232",
"= 	c #2E2E2E",
"- 	c #292929",
"; 	c #242424",
"> 	c #202020",
", 	c #1B1B1B",
"' 	c #191919",
") 	c #626262",
"! 	c #878686",
"~ 	c #817D7D",
"{ 	c #7D7272",
"] 	c #766060",
"^ 	c #6F4E4E",
"/ 	c #5D5D5D",
"( 	c #6F6F70",
"_ 	c #67696B",
": 	c #595D63",
"< 	c #4A515B",
"[ 	c #2E363F",
"} 	c #1D1D1D",
"| 	c #4D4D4D",
"1 	c #868686",
"2 	c #FBEEEE",
"3 	c #F4D0D0",
"4 	c #EDB4B4",
"5 	c #E38C8C",
"6 	c #D86767",
"7 	c #2D2D2D",
"8 	c #B7B8B8",
"9 	c #E2E9F2",
"0 	c #CCD8E8",
"a 	c #ABBEDA",
"b 	c #8BA7CD",
"c 	c #526988",
"d 	c #2A2A2A",
"e 	c #4A4A4A",
"f 	c #121214",
"g 	c #2B2B2D",
"h 	c #2F2F2F",
"i 	c #474747",
"j 	c #F4D2D2",
"k 	c #EBAFAF",
"l 	c #E69797",
"m 	c #DE7575",
"n 	c #CF5555",
"o 	c #272727",
"p 	c #ADAFB2",
"q 	c #C1CEE3",
"r 	c #AEC0DC",
"s 	c #8FA9CF",
"t 	c #7898C4",
"u 	c #506586",
"v 	c #39393A",
"w 	c #141416",
"x 	c #3C3C3D",
"y 	c #1F1F21",
"z 	c #1B1B1C",
"A 	c #181817",
"B 	c #424242",
"C 	c #7C7474",
"D 	c #EDB7B7",
"E 	c #E18484",
"F 	c #DA6565",
"G 	c #C74646",
"H 	c #222222",
"I 	c #A0A4AB",
"J 	c #A7BAD8",
"K 	c #98B0D2",
"L 	c #809CC8",
"M 	c #6C8DC0",
"N 	c #566C8D",
"O 	c #1D1D1E",
"P 	c #28282A",
"Q 	c #202022",
"R 	c #020204",
"S 	c #0C0C0C",
"T 	c #0A0A0B",
"U 	c #171717",
"V 	c #756464",
"W 	c #E59292",
"X 	c #D44C4C",
"Y 	c #BE3131",
"Z 	c #1C1C1C",
"` 	c #8892A0",
" .	c #84A1CA",
"..	c #7998C5",
"+.	c #6689BD",
"@.	c #5880B7",
"#.	c #445B7C",
"$.	c #131315",
"%.	c #060507",
"&.	c #060608",
"*.	c #1A1A1B",
"=.	c #101011",
"-.	c #030305",
";.	c #373737",
">.	c #6F5454",
",.	c #DD7171",
"'.	c #D75858",
").	c #D44B4B",
"!.	c #CF3535",
"~.	c #B61D1D",
"{.	c #6F7F94",
"].	c #688CBD",
"^.	c #5F83BA",
"/.	c #4E77B3",
"(.	c #4570AF",
"_.	c #395074",
":.	c #8D8C8C",
"<.	c #1A191A",
"[.	c #908F8F",
"}.	c #3C3C3B",
"|.	c #080809",
"1.	c #212122",
"2.	c #673D3D",
"3.	c #D14343",
"4.	c #C93232",
"5.	c #C52727",
"6.	c #BD1515",
"7.	c #A40606",
"8.	c #121212",
"9.	c #476083",
"0.	c #426DAC",
"a.	c #3C67A6",
"b.	c #2E5C9F",
"c.	c #28569B",
"d.	c #324C70",
"e.	c #949494",
"f.	c #71716F",
"g.	c #605C53",
"h.	c #858179",
"i.	c #656463",
"j.	c #A4A4A4",
"k.	c #1F1F1F",
"l.	c #000000",
"m.	c #2C2C2C",
"n.	c #3B2B2B",
"o.	c #5B2727",
"p.	c #531F1F",
"q.	c #4D1919",
"r.	c #451010",
"s.	c #3C0B0B",
"t.	c #0D0D0D",
"u.	c #17212E",
"v.	c #132238",
"w.	c #0E1D33",
"x.	c #0B1A30",
"y.	c #101E34",
"z.	c #2F3844",
"A.	c #807E7D",
"B.	c #7F6932",
"C.	c #B9982B",
"D.	c #B29833",
"E.	c #6B5D27",
"F.	c #888478",
"G.	c #6A6A69",
"H.	c #636360",
"I.	c #5C5C55",
"J.	c #515142",
"K.	c #47462F",
"L.	c #070707",
"M.	c #515350",
"N.	c #4B4F49",
"O.	c #404A3C",
"P.	c #3B4935",
"Q.	c #475241",
"R.	c #6F5628",
"S.	c #DDA914",
"T.	c #ECC315",
"U.	c #F3D426",
"V.	c #EBC918",
"W.	c #A48118",
"X.	c #1D1708",
"Y.	c #030304",
"Z.	c #696969",
"`.	c #F6F6ED",
" +	c #E6E5CE",
".+	c #D8D7B1",
"++	c #C3C186",
"@+	c #AFAC60",
"#+	c #020202",
"$+	c #A9A9A9",
"%+	c #E3EFDE",
"&+	c #CDE2C5",
"*+	c #ACD09D",
"=+	c #93C180",
"-+	c #759666",
";+	c #675228",
">+	c #D4A310",
",+	c #E6C015",
"'+	c #D9B219",
")+	c #C49411",
"!+	c #96742D",
"~+	c #221E16",
"{+	c #252525",
"]+	c #343333",
"^+	c #636361",
"/+	c #E7E6CF",
"(+	c #D6D5AB",
"_+	c #C9C791",
":+	c #B7B56E",
"<+	c #A3A04C",
"[+	c #A2A5A0",
"}+	c #C6DEBC",
"|+	c #B4D5A8",
"1+	c #9BC68A",
"2+	c #8BBD77",
"3+	c #69895C",
"4+	c #5D5D5E",
"5+	c #B19B6D",
"6+	c #B88D2F",
"7+	c #BB923A",
"8+	c #C3AF82",
"9+	c #CAC9C8",
"0+	c #444446",
"a+	c #5C5C57",
"b+	c #D9D9B4",
"c+	c #BEBD7D",
"d+	c #B0AD5D",
"e+	c #99973D",
"f+	c #969F93",
"g+	c #ADD0A0",
"h+	c #A1C991",
"i+	c #8EBF7C",
"j+	c #87BB74",
"k+	c #485345",
"l+	c #969696",
"m+	c #CCCBC7",
"n+	c #B5ACA0",
"o+	c #C5BFB4",
"p+	c #E2E1E0",
"q+	c #FAF9F9",
"r+	c #9F9FA0",
"s+	c #212123",
"t+	c #1C1C1E",
"u+	c #2F2F30",
"v+	c #111111",
"w+	c #525246",
"x+	c #C6C58C",
"y+	c #A3A143",
"z+	c #8A8928",
"A+	c #82937C",
"B+	c #8EBF7A",
"C+	c #86BA73",
"D+	c #82B86C",
"E+	c #596A52",
"F+	c #555555",
"G+	c #EBEBEB",
"H+	c #F8F8F8",
"I+	c #E9E9E9",
"J+	c #F6F6F6",
"K+	c #FEFEFE",
"L+	c #EEEEEE",
"M+	c #222223",
"N+	c #040406",
"O+	c #3A3A3B",
"P+	c #494836",
"Q+	c #B5B36A",
"R+	c #A9A64F",
"S+	c #A2A041",
"T+	c #96952B",
"U+	c #7E7D13",
"V+	c #6C8762",
"W+	c #76B15D",
"X+	c #74B05C",
"Y+	c #628F51",
"Z+	c #151B14",
"`+	c #828282",
" @	c #EFEFEF",
".@	c #F3F3F3",
"+@	c #FCFCFC",
"@@	c #ECECEC",
"#@	c #E2E2E2",
"$@	c #4C4C4C",
"%@	c #040404",
"&@	c #171719",
"*@	c #060606",
"=@	c #3B3B1D",
"-@	c #9E9C39",
";@	c #929127",
">@	c #8B891C",
",@	c #7F7B0B",
"'@	c #636002",
")@	c #4A743A",
"!@	c #559E39",
"~@	c #5CA143",
"{@	c #272627",
"]@	c #BBBABA",
"^@	c #F5F5F5",
"/@	c #F9F9F9",
"(@	c #FDFDFD",
"_@	c #DFDFDF",
":@	c #ACACAC",
"<@	c #181819",
"[@	c #060607",
"}@	c #1D1C1E",
"|@	c #010101",
"1@	c #121106",
"2@	c #31300C",
"3@	c #2C2B07",
"4@	c #292804",
"5@	c #232200",
"6@	c #1A1900",
"7@	c #14250E",
"8@	c #223C19",
"9@	c #3A5132",
"0@	c #161616",
"a@	c #5A5A5A",
"b@	c #E5E5E5",
"c@	c #6A6A6A",
"d@	c #343433",
"e@	c #1C1B1C",
"f@	c #161617",
"g@	c #181818",
"h@	c #292928",
"i@	c #A0A0A0",
"j@	c #F0F0F0",
"k@	c #FBFBFB",
"l@	c #B8B8B8",
"m@	c #2B2A2B",
"n@	c #AAAAAA",
"o@	c #292828",
"p@	c #484848",
"q@	c #D0D0D0",
"r@	c #FAFAFA",
"s@	c #CDCDCD",
"t@	c #323233",
"u@	c #4A4949",
"v@	c #323131",
"w@	c #858585",
"x@	c #313132",
"y@	c #171617",
"z@	c #6D6C6C",
"A@	c #E8E8E8",
"B@	c #E7E7E7",
"C@	c #D3D3D3",
"D@	c #353435",
"E@	c #5B5B5C",
"F@	c #242425",
"G@	c #3B3B3B",
"H@	c #424140",
"I@	c #181715",
"J@	c #7D7D7D",
"K@	c #E6E6E6",
"L@	c #79797A",
"M@	c #373738",
"N@	c #B4820D",
"O@	c #CB9C0E",
"P@	c #766943",
"Q@	c #C0C0C0",
"R@	c #F6ECC6",
"S@	c #CFB867",
"T@	c #312F2D",
"U@	c #525253",
"V@	c #2C2A28",
"W@	c #54472D",
"X@	c #606060",
"Y@	c #8C600D",
"Z@	c #A3710C",
"`@	c #DBA50D",
" #	c #F4BD0E",
".#	c #B78F13",
"+#	c #59523F",
"@#	c #CECECE",
"##	c #EBD48F",
"$#	c #D9A811",
"%#	c #1E1911",
"&#	c #3A2D0D",
"*#	c #B88E14",
"=#	c #DAA40F",
"-#	c #F0BA16",
";#	c #F5C121",
">#	c #F5C01B",
",#	c #F1BB10",
"'#	c #8D6F10",
")#	c #232322",
"!#	c #9D9D9D",
"~#	c #F1F1F1",
"{#	c #CCB372",
"]#	c #DEA60C",
"^#	c #9D700F",
"/#	c #87610A",
"(#	c #CC970C",
"_#	c #EFB910",
":#	c #EDB719",
"<#	c #F6C93E",
"[#	c #F6CD4A",
"}#	c #F5C11F",
"|#	c #F5BD0E",
"1#	c #DFB112",
"2#	c #312508",
"3#	c #393939",
"4#	c #DEDEDE",
"5#	c #B3995C",
"6#	c #E3AE17",
"7#	c #E2A90F",
"8#	c #E1A90D",
"9#	c #F0B80E",
"0#	c #CB960D",
"a#	c #EAB51C",
"b#	c #F6CC48",
"c#	c #F7CE4D",
"d#	c #C09C24",
"e#	c #B5AF9E",
"f#	c #F2F2F2",
"g#	c #C4C4C4",
"h#	c #787879",
"i#	c #6E5112",
"j#	c #E4B121",
"k#	c #F6CB45",
"l#	c #E8B10E",
"m#	c #AF7E0C",
"n#	c #585858",
"o#	c #C7C7C7",
"p#	c #906A1F",
"q#	c #E4B018",
"r#	c #EDBB24",
"s#	c #F3C22C",
"t#	c #F5BF16",
"u#	c #E3B114",
"v#	c #B1985E",
"w#	c #BEBEBE",
"x#	c #CBCBCB",
"y#	c #BFBFBF",
"z#	c #9A9A9A",
"A#	c #454546",
"B#	c #0F0F11",
"C#	c #715008",
"D#	c #E5AF17",
"E#	c #F7CE52",
"F#	c #F3C22D",
"G#	c #F1B90E",
"H#	c #E7B00E",
"I#	c #BB8A0E",
"J#	c #986B0D",
"K#	c #646464",
"L#	c #654918",
"M#	c #AB7C19",
"N#	c #C38F0C",
"O#	c #CE980D",
"P#	c #DFA80D",
"Q#	c #EDB50D",
"R#	c #F2BA0E",
"S#	c #DDA50D",
"T#	c #815A0C",
"U#	c #0C0B0B",
"V#	c #141415",
"W#	c #0B0B0B",
"X#	c #050506",
"Y#	c #77530A",
"Z#	c #DBA30B",
"`#	c #EBB616",
" $	c #E4AF18",
".$	c #C9940D",
"+$	c #AC790C",
"@$	c #967029",
"#$	c #A0720F",
"$$	c #BB860B",
"%$	c #CB930B",
"&$	c #AB780C",
"*$	c #624410",
"=$	c #343334",
"-$	c #715014",
";$	c #B8820A",
">$	c #CF970B",
",$	c #AE7D0D",
"'$	c #86704B",
")$	c #775010",
"!$	c #614413",
"~$	c #776D5D",
"{$	c #755216",
"]$	c #7F5711",
"                                                                ",
"    . + @ # $ % & * = - ; > , '                                 ",
"  . ) ! ~ { ] ^ * / ( _ : < [ }                                 ",
"  | 1 2 3 4 5 6 7 8 9 0 a b c d e f g h                         ",
"  i ~ j k l m n o p q r s t u v w x y z A =                     ",
"  B C D l E F G H I J K L M N O P Q R S T U                     ",
"  % V W m F X Y Z `  ...+.@.#.$.Z %.&.*.=.-.                    ",
"  ;.>.,.'.).!.~.U {.].^./.(._.v :.<.d [.}.|.1.                  ",
"  * 2.3.4.5.6.7.8.9.0.a.b.c.d.e.f.g.h.i.j.k.l.                  ",
"  m.n.o.p.q.r.s.t.u.v.w.x.y.z.A.B.C.D.E.F.S l.                  ",
"  o % G.H.I.J.K.L.% M.N.O.P.Q.R.S.T.U.V.W.X.Y.                  ",
"  H Z.`. +.+++@+#+$+%+&+*+=+-+;+>+,+'+)+!+~+{+]+                ",
"  Z ^+/+(+_+:+<+l.[+}+|+1+2+3+4+5+6+7+8+9+0+$ O                 ",
"  U a+b+_+c+d+e+l.f+g+h+i+j+k+l+m+n+o+p+q+r+s+t+u+              ",
"  v+w+x+:+d+y+z+l.A+B+C+D+E+F+G+H+I+J+K+K+L+M+N+=.O+            ",
"  S P+Q+R+S+T+U+l.V+W+X+Y+Z+`+ @J+.@+@H+@@#@$@%@Y.&@            ",
"  *@=@-@;@>@,@'@l.)@!@~@{@f ]@^@/@H+(@+@ @_@:@h <@[@}@          ",
"  |@1@2@3@4@5@6@l.7@8@9@0@a@ @(@(@(@(@(@(@+@b@c@d@e@f@          ",
"    l.l.l.l.l.l.l.%@g@;.h@i@j@(@/@k@(@K+(@(@k@l@o ]+N+m@        ",
"      n@              o@p@q@+@(@@@r@+@(@(@(@/@s@t@u@R v@        ",
"      w@            x@y@z@A@(@(@B@/@(@(@(@(@/@C@D@E@w F@        ",
"      G@            H@I@J@I+(@+@K@k@+@(@(@(@r@C@B L@M@F@        ",
"      n@            N@O@P@Q@+@(@A@/@(@+@+@(@R@S@T@U@V@W@        ",
"      X@        Y@Z@`@ #.#+#@#k@^@r@(@(@(@+@##$#%#$.&#*#        ",
"      X@      Y@=#-#;#>#,#'#)#!#+@k@+@k@+@~#{#]#^#/#(#_#Z@      ",
"      n@      Z@:#<#[#}#|#1#2#3#J+(@(@(@^@4#5#6#7#8#9# #0#      ",
"      G@      Z@a#b#c#>#|# #d#e#G+f#.@A@g#h#i#j#k#}#|# #l#m#    ",
"      w@n#o#o#p#q#r#s#t#|#|#u#v#w#x#y#z#A#B#C#D#E#F#G#H#I#J#    ",
"      n@m.K#K#L#M#N#O#P#Q#R#S#T#U#V#W#X#N+N+Y#Z#`# $.$+$        ",
"                    @$#$$$%$&$*$H@=$        -$;$>$,$            ",
"                        '$)$!$~$              {$]$              ",
"                                                                "};
